# AST/ASF file generated using VICON BodyLanguage
# -----------------------------------------------
:version 1.10
:name VICON
:units
  mass 1.0
  length 0.45
  angle deg
:documentation
   .ast/.asf automatically generated from VICON data using
   VICON BodyBuilder and BodyLanguage model FoxedUp or BRILLIANT.MOD
:root
   order TX TY TZ RX RY RZ
   axis XYZ
   position 0 0 0  
   orientation 0 0 0 
:bonedata
  begin
     id 1 
     name lhipjoint
     direction 0.603808 -0.713975 0.35448 
     length 2.2025 
     axis 0 0 0  XYZ
  end
  begin
     id 2 
     name lfemur
     direction 0.34202 -0.939693 0  
     length 6.55877  
     axis 0 0 20  XYZ
    dof rx ry rz
    limits (-160.0 20.0)
           (-70.0 70.0)
           (-60.0 70.0)
  end
  begin
     id 3 
     name ltibia
     direction 0.34202 -0.939693 0   
     length 6.80302   
     axis 0 0 20   XYZ
    dof rx
    limits (-10.0 170.0)
  end
  begin
     id 4 
     name lfoot
     direction 0.091848 -0.25235 0.963267   
     length 2.03446   
     axis -90 7.62852e-016 20   XYZ
    dof rx rz
    limits (-45.0 90.0)
           (-70.0 20.0)
  end
  begin
     id 5 
     name ltoes
     direction 1.53608e-011 -4.21925e-011 1   
     length 1.02033   
     axis -90 7.62852e-016 20   XYZ
    dof rx
    limits (-90.0 20.0)
  end
  begin
     id 6 
     name rhipjoint
     direction -0.587285 -0.724947 0.359928   
     length 2.16916  
     axis 0 0 0  XYZ 
  end
  begin
     id 7 
     name rfemur
     direction -0.34202 -0.939693 0   
     length 6.43173   
     axis 0 0 -20   XYZ
    dof rx ry rz
    limits (-160.0 20.0)
           (-70.0 70.0)
           (-70.0 60.0)
  end
  begin
     id 8 
     name rtibia
     direction -0.34202 -0.939693 0   
     length 6.70662   
     axis 0 0 -20   XYZ
    dof rx
    limits (-10.0 170.0)
 end
 begin
     id 9 
     name rfoot
     direction -0.11854 -0.325686 0.938018   
     length 2.0773  
     axis -90 -7.62852e-016 -20   XYZ
    dof rx rz
    limits (-45.0 90.0)
           (-20.0 70.0)
  end
  begin
     id 10 
     name rtoes
     direction -1.53547e-011 -4.21838e-011 1   
     length 1.03267   
     axis -90 -7.62852e-016 -20   XYZ
    dof rx
    limits (-90.0 20.0)
  end
  begin
     id 11 
     name lowerback
     direction -0.0286554 0.999539 0.0100613   
     length 2.08751   
     axis 0 0 0   XYZ
    dof rx ry rz
    limits (-20.0 45.0)
           (-30.0 30.0)
           (-30.0 30.0)
  end
  begin
     id 12 
     name upperback
     direction 0.0227093 0.999705 -0.00860929   
     length 2.08517   
     axis 0 0 0   XYZ
    dof rx ry rz
    limits (-20.0 45.0)
           (-30.0 30.0)
           (-30.0 30.0)
  end
  begin
     id 13 
     name thorax
     direction 0.0351627 0.999285 -0.013892   
     length 2.08412   
     axis 0 0 0   XYZ
    dof rx ry rz
    limits (-20.0 45.0)
           (-30.0 30.0)
           (-30.0 30.0)
  end
  begin
     id 14 
     name lowerneck
     direction -0.0696283 0.997344 0.0213922   
     length 1.44164   
     axis 0 0 0   XYZ
    dof rx ry rz
    limits (-20.0 45.0)
           (-30.0 30.0)
           (-30.0 30.0)
  end
  begin
     id 15 
     name upperneck
     direction 0.0531 0.990412 -0.127531   
     length 1.45022   
     axis 0 0 0   XYZ
    dof rx ry rz
    limits (-20.0 45.0)
           (-30.0 30.0)
           (-30.0 30.0)
  end
  begin
     id 16
     name head
     direction 0.0188154 0.998548 -0.0504727  
     length 1.45845  
     axis 0 0 0   XYZ
    dof rx ry rz
    limits (-20.0 45.0)
           (-30.0 30.0)
           (-30.0 30.0)
  end
  begin
     id 17 
     name lclavicle
     direction 0.961559 0.260051 0.088188  
     length 2.86057  
     axis 0 0 0   XYZ
    dof ry rz
    limits (-20.0 10.0)
           (0.0 20.0)
  end
  begin
     id 18 
     name lhumerus
     direction 1 -4.48959e-011 2.88185e-027   
     length 4.36901   
     axis 180 -30 -90   XYZ
    dof rx ry rz
    limits (-60.0 90.0)
           (-90.0 90.0)
           (-90.0 90.0)
  end
  begin
     id 19
     name lradius
     direction 1 -4.48965e-011 -3.92618e-028   
     length 3.21737   
     axis 180 -30 -90   XYZ
    dof rx
    limits (-10.0 170.0)
  end
  begin
     id 20
     name lwrist
     direction 1 -4.49037e-011 2.57246e-027   
     length 1.60869   
     axis -1.61769e-015 90 90   XYZ
    dof ry
    limits (-180.0 0.0)
 end
  begin
     id 21 
     name lhand
     direction 1 -4.48807e-011 5.12958e-027   
     length 0.564313   
     axis -3.27988e-015 90 90   XYZ
    dof rx rz
    limits (-90.0 90.0)
           (-45.0 45.0)
  end
  begin
     id 22 
     name lfingers
     direction 1 -4.48879e-011 1.02687e-026   
     length 0.454963   
     axis -6.5598e-015 90 90   XYZ
    dof rx
    limits (0.0 90.0)
  end
  begin
     id 23
     name lthumb
     direction 0.707107 -6.3475e-011 0.707107   
     length 0.653239   
     axis -90 45 2.19363e-014   XYZ
    dof rx rz
    limits (-45.0 45.0)
           (-45.0 45.0)
  end
  begin
     id 24 
     name rclavicle
     direction -0.954677 0.253915 0.155304   
     length 3.11497  
     axis 0 0 0   XYZ 
    dof ry rz
    limits (-10.0 20.0)
           (-20.0 0.0)
  end
  begin
     id 25 
     name rhumerus
     direction -1 -4.48958e-011 -8.20169e-028  
     length 4.34118   
     axis 180 30 90   XYZ
    dof rx ry rz
    limits (-90.0 60.0)
           (-90.0 90.0)
           (-90.0 90.0)
  end
  begin
     id 26 
     name rradius
     direction -1 -4.48978e-011 1.5676e-027   
     length 3.09531   
     axis 180 30 90   XYZ
    dof rx
    limits (-10.0 170.0)
  end
  begin
     id 27 
     name rwrist
     direction -1 -4.49001e-011 2.57123e-027   
     length 1.54765   
     axis -1.61769e-015 -90 -90   XYZ
    dof ry
    limits (-180.0 0.0)
  end
  begin
     id 28
     name rhand
     direction -1 -4.48847e-011 5.13225e-027   
     length 0.597446   
     axis -3.27988e-015 -90 -90   XYZ
    dof rx rz
    limits (-90.0 90.0)
           (-45.0 45.0)
  end
  begin
     id 29
     name rfingers
     direction -1 -4.49094e-011 1.02974e-026   
     length 0.481677   
     axis -6.5598e-015 -90 -90   XYZ
    dof rx
    limits (0.0 90.0)
  end
  begin
     id 30
     name rthumb
     direction -0.707107 -6.34859e-011 0.707107   
     length 0.691594   
     axis -90 -45 -2.19363e-014   XYZ
    dof rx rz
    limits (-45.0 45.0)
           (-45.0 45.0)
  end
:hierarchy
  begin
    root lhipjoint rhipjoint lowerback
    lhipjoint lfemur
    lfemur ltibia
    ltibia lfoot
    lfoot ltoes
    rhipjoint rfemur
    rfemur rtibia
    rtibia rfoot
    rfoot rtoes
    lowerback upperback
    upperback thorax
    thorax lowerneck lclavicle rclavicle
    lowerneck upperneck
    upperneck head
    lclavicle lhumerus
    lhumerus lradius
    lradius lwrist
    lwrist lhand lthumb
    lhand lfingers
    rclavicle rhumerus
    rhumerus rradius
    rradius rwrist
    rwrist rhand rthumb
    rhand rfingers
  end

#!OML:ASF I:\Acrobat_Osman\acrobat\cartwheel_test 2\Patient 1\Session 1\acrobat.ASF
:FULLY-SPECIFIED
:DEGREES
1124
root 17.0724 12.2835 10.1896 120.645 607.2 -787.852
lowerback 32.428 4.37962 9.86927
upperback 10.265 7.85594 6.50098
thorax -5.41747 3.31882 -1.01852
lowerneck -12.5072 3.27919 2.97805
upperneck -15.5279 3.09489 -6.07954
head -2.76537 1.19807 -2.45322
rclavicle 9.54166e-015 -4.77083e-015
rhumerus 41.1931 -10.3714 336.17
rradius 22.8439
rwrist -691.473
rhand -29.9854 -1403.05
rfingers 7.12502
rthumb -3.30335 6.99595
lclavicle 9.54166e-015 -4.77083e-015
lhumerus -36.7493 -18.2878 85.3733
lradius 50.8818
lwrist 21.6222
lhand -22.1697 45.4025
lfingers 7.12502
lthumb 4.24492 75.34
rfemur -108.291 -11.5128 22.1214
rtibia 100.038
rfoot -28.7217 -22.6173
rtoes -44.7969
lfemur -56.7103 8.26847 -33.65
ltibia 82.6134
lfoot 9.49629 -24.5246
ltoes -34.4575
1125
root 17.0546 12.3703 10.3005 119.423 607.728 -787.848
lowerback 32.6091 3.71066 10.7395
upperback 9.62383 7.36221 5.94192
thorax -5.43944 3.07588 -1.74411
lowerneck -12.0983 3.36812 3.08357
upperneck -16.1159 3.2126 -5.6069
head -3.03918 1.23426 -2.33027
rclavicle -2.54444e-014 -7.55382e-014
rhumerus 42.8804 -11.7363 331.227
rradius 21.9123
rwrist -691.042
rhand -25.746 -1406.59
rfingers 7.12502
rthumb 0.79107 3.43037
lclavicle -2.54444e-014 -7.55382e-014
lhumerus -37.5652 -20.3796 87.3675
lradius 50.6419
lwrist 21.2962
lhand -22.2073 46.26
lfingers 7.12502
lthumb 4.2086 76.1982
rfemur -106.357 -11.8491 21.8813
rtibia 99.3135
rfoot -28.7867 -22.6188
rtoes -45.1684
lfemur -57.6603 8.40874 -32.8465
ltibia 84.5222
lfoot 7.54294 -24.0178
ltoes -35.2621
1126
root 17.0218 12.472 10.3997 118.582 608.285 -788.153
lowerback 31.9027 3.48861 10.9062
upperback 9.80781 7.05692 6.13857
thorax -5.56061 2.94503 -1.71031
lowerneck -11.6332 3.37926 2.68519
upperneck -16.6931 3.27113 -5.23537
head -3.33055 1.27143 -2.15566
rclavicle 3.49861e-014 1.82882e-014
rhumerus 44.1074 -13.0508 326.949
rradius 21.1285
rwrist -690.784
rhand -21.3896 -1411.17
rfingers 7.12502
rthumb 4.9982 -1.09489
lclavicle 3.49861e-014 1.82882e-014
lhumerus -37.9638 -21.3766 89.3537
lradius 50.5389
lwrist 21.4244
lhand -21.7886 46.913
lfingers 7.12502
lthumb 4.61291 76.8428
rfemur -104.229 -12.2266 21.6107
rtibia 98.414
rfoot -29.1137 -22.4725
rtoes -45.1571
lfemur -58.7114 8.28206 -31.8763
ltibia 86.3189
lfoot 5.23967 -23.1866
ltoes -36.356
1127
root 16.9861 12.5733 10.4885 117.488 608.778 -788.18
lowerback 31.6709 3.58047 10.7408
upperback 9.54021 7.16387 6.32756
thorax -5.80769 2.97564 -1.44359
lowerneck -11.3391 3.28487 2.63744
upperneck -16.9763 3.11935 -5.30885
head -3.48908 1.19742 -2.18708
rclavicle -1.30403e-013 -6.34123e-014
rhumerus 44.074 -14.3037 323.697
rradius 20.5121
rwrist -689.725
rhand -16.8694 -1415.4
rfingers 7.12502
rthumb 9.36134 -5.16734
lclavicle -1.30403e-013 -6.34123e-014
lhumerus -38.2083 -22.6778 91.2908
lradius 50.5394
lwrist 21.7743
lhand -21.6572 47.6091
lfingers 7.12502
lthumb 4.73978 77.536
rfemur -102.051 -12.4349 21.1941
rtibia 97.4169
rfoot -29.3971 -22.2919
rtoes -45.0174
lfemur -59.851 8.14079 -31.0477
ltibia 87.9767
lfoot 2.62475 -22.4553
ltoes -37.9948
1128
root 16.9486 12.6741 10.5698 116.221 609.177 -788.046
lowerback 31.4747 3.61343 10.5806
upperback 9.31595 7.18438 6.27168
thorax -5.9922 2.97854 -1.42452
lowerneck -11.2085 3.14221 2.83611
upperneck -17.0994 2.89316 -5.29142
head -3.56439 1.06896 -2.22436
rclavicle 1.78111e-013 5.02925e-014
rhumerus 43.1978 -15.1916 321.103
rradius 20.0168
rwrist -688.29
rhand -13.2525 -1417.06
rfingers 7.12502
rthumb 12.8498 -6.64158
lclavicle 1.78111e-013 5.02925e-014
lhumerus -38.1693 -23.8429 92.4153
lradius 50.8228
lwrist 22.6249
lhand -21.6616 48.03
lfingers 7.12502
lthumb 4.73557 77.9571
rfemur -99.8566 -12.5325 20.6863
rtibia 96.3717
rfoot -29.4799 -22.2524
rtoes -44.9999
lfemur -60.9883 7.90862 -30.3204
ltibia 89.4284
lfoot 0.321481 -21.7265
ltoes -39.2336
1129
root 16.9012 12.7811 10.6449 114.854 609.534 -787.808
lowerback 31.1689 3.51524 10.2288
upperback 9.23697 6.94424 6.26512
thorax -6.01183 2.86821 -1.14824
lowerneck -11.1099 3.13567 1.91084
upperneck -17.1451 3.00357 -4.80208
head -3.60997 1.16658 -1.89654
rclavicle 4.13472e-014 -1.76918e-014
rhumerus 41.583 -14.2736 320.55
rradius 20.1196
rwrist -688.689
rhand -11.0217 -1417.32
rfingers 7.12502
rthumb 14.9996 -6.75544
lclavicle 4.13472e-014 -1.76918e-014
lhumerus -37.7623 -23.7494 93.0113
lradius 51.2421
lwrist 23.5715
lhand -21.4887 47.9319
lfingers 7.12502
lthumb 4.90248 77.8552
rfemur -97.5536 -12.6243 20.1635
rtibia 95.2402
rfoot -29.4313 -22.3062
rtoes -44.9639
lfemur -62.1284 7.57875 -29.6512
ltibia 90.6537
lfoot -1.93003 -20.8011
ltoes -40.5044
1130
root 16.8454 12.8894 10.7149 113.665 610.011 -787.755
lowerback 30.7246 2.99133 9.12986
upperback 9.20812 5.97145 6.9657
thorax -6.13081 2.3909 0.577864
lowerneck -9.60251 3.48812 -1.46771
upperneck -17.9278 3.81277 -3.81475
head -4.21982 1.7708 -1.0309
rclavicle 6.36111e-014 4.01545e-014
rhumerus 40.7779 -10.2466 321.696
rradius 20.785
rwrist -690.852
rhand -9.78222 -1417
rfingers 7.12502
rthumb 16.1934 -6.34833
lclavicle 6.36111e-014 4.01545e-014
lhumerus -37.5356 -20.052 93.8547
lradius 51.6953
lwrist 23.9115
lhand -20.6531 47.316
lfingers 7.12502
lthumb 5.70931 77.2191
rfemur -95.1411 -12.6768 19.8534
rtibia 94.0267
rfoot -29.2483 -22.6473
rtoes -45.049
lfemur -63.3369 7.23629 -28.9018
ltibia 91.648
lfoot -4.33764 -19.782
ltoes -42.0277
1131
root 16.7839 12.996 10.782 112.774 610.597 -787.83
lowerback 30.3097 3.07195 9.14969
upperback 9.18673 6.02758 6.77782
thorax -5.93488 2.43385 0.354662
lowerneck -10.1517 3.34355 -1.22301
upperneck -17.7154 3.57593 -3.99939
head -4.03753 1.63179 -1.11728
rclavicle 6.36111e-014 2.06736e-014
rhumerus 37.8413 -10.0534 320.959
rradius 20.9436
rwrist -691.372
rhand -9.91013 -1415.7
rfingers 7.12502
rthumb 16.0702 -5.05259
lclavicle 6.36111e-014 2.06736e-014
lhumerus -36.6185 -20.3252 93.4936
lradius 52.3563
lwrist 25.0968
lhand -20.0501 47.2189
lfingers 7.12502
lthumb 6.29144 77.1054
rfemur -92.8894 -12.6431 19.7304
rtibia 92.761
rfoot -29.005 -23.1034
rtoes -45.4145
lfemur -64.8844 6.85472 -28.1271
ltibia 92.4197
lfoot -6.69846 -18.4805
ltoes -43.8675
1132
root 16.712 13.1086 10.8401 112.37 611.124 -788.376
lowerback 29.9342 3.05908 9.13658
upperback 9.07266 5.98633 6.59404
thorax -5.87211 2.42741 0.182731
lowerneck -10.461 3.19918 -1.07925
upperneck -17.3806 3.36286 -4.14501
head -3.8576 1.51861 -1.17703
rclavicle -2.22639e-014 -1.39149e-014
rhumerus 34.4897 -9.23392 320.57
rradius 21.2909
rwrist -693.289
rhand -10.8523 -1414.74
rfingers 7.12502
rthumb 15.1628 -4.16134
lclavicle -2.22639e-014 -1.39149e-014
lhumerus -35.9732 -20.3805 93.0115
lradius 53.1383
lwrist 26.6261
lhand -20.091 47.2933
lfingers 7.12502
lthumb 6.25196 77.1811
rfemur -90.5533 -12.6964 19.5345
rtibia 91.467
rfoot -28.9675 -23.3758
rtoes -45.7118
lfemur -66.4429 6.32497 -27.3761
ltibia 92.8402
lfoot -8.25565 -16.8609
ltoes -44.2856
